<svg width="16" height="24" viewBox="0 0 16 24" fill="none" xmlns="http://www.w3.org/2000/svg">
<path d="M13.4143 15.9312C13.1196 15.2331 12.6919 14.5989 12.155 14.0641C11.6197 13.5277 10.9856 13.1 10.2878 12.8047C10.2815 12.8016 10.2753 12.8 10.269 12.7969C11.2425 12.0938 11.8753 10.9484 11.8753 9.65625C11.8753 7.51562 10.1409 5.78125 8.00028 5.78125C5.85966 5.78125 4.12528 7.51562 4.12528 9.65625C4.12528 10.9484 4.7581 12.0937 5.73153 12.7984C5.72528 12.8016 5.71903 12.8031 5.71278 12.8062C5.01278 13.1016 4.38466 13.525 3.8456 14.0656C3.3092 14.6009 2.88154 15.235 2.58622 15.9328C2.2961 16.616 2.13963 17.3485 2.12528 18.0906C2.12487 18.1073 2.12779 18.1239 2.13389 18.1394C2.13998 18.1549 2.14912 18.1691 2.16077 18.181C2.17242 18.193 2.18634 18.2025 2.20171 18.2089C2.21709 18.2154 2.2336 18.2188 2.25028 18.2188H3.18778C3.25653 18.2188 3.31122 18.1641 3.31278 18.0969C3.34403 16.8906 3.82841 15.7609 4.68466 14.9047C5.5706 14.0188 6.74716 13.5312 8.00028 13.5312C9.25341 13.5312 10.43 14.0188 11.3159 14.9047C12.1722 15.7609 12.6565 16.8906 12.6878 18.0969C12.6893 18.1656 12.744 18.2188 12.8128 18.2188H13.7503C13.767 18.2188 13.7835 18.2154 13.7989 18.2089C13.8142 18.2025 13.8281 18.193 13.8398 18.181C13.8514 18.1691 13.8606 18.1549 13.8667 18.1394C13.8728 18.1239 13.8757 18.1073 13.8753 18.0906C13.8597 17.3437 13.705 16.6172 13.4143 15.9312V15.9312ZM8.00028 12.3438C7.2831 12.3438 6.6081 12.0641 6.10028 11.5563C5.59247 11.0484 5.31278 10.3734 5.31278 9.65625C5.31278 8.93906 5.59247 8.26406 6.10028 7.75625C6.6081 7.24844 7.2831 6.96875 8.00028 6.96875C8.71747 6.96875 9.39247 7.24844 9.90028 7.75625C10.4081 8.26406 10.6878 8.93906 10.6878 9.65625C10.6878 10.3734 10.4081 11.0484 9.90028 11.5563C9.39247 12.0641 8.71747 12.3438 8.00028 12.3438Z" fill="white"/>
</svg>
